<?xml version="1.0" encoding="utf-8"?>
<!-- Generator: Adobe Illustrator 21.1.0, SVG Export Plug-In . SVG Version: 6.00 Build 0)  -->
<svg version="1.1" id="レイヤー_2" xmlns="http://www.w3.org/2000/svg" xmlns:xlink="http://www.w3.org/1999/xlink" x="0px"
	 y="0px" viewBox="0 0 200.5 197.9" style="enable-background:new 0 0 200.5 197.9;" xml:space="preserve">
<style type="text/css">
	.st0{fill:#FFFFFF;}
</style>
<g>
	<path class="st0" d="M49.3,29.2L49.3,29.2l-7.4,20.6h-2.2l-7.1-20.6h-0.1l-2.9,20.1h-6.4L28.7,16h4.5l8,21.4L48.9,16h4.6l4.9,33.3
		h-6.4L49.3,29.2z"/>
	<path class="st0" d="M76,22.4v7.1h10.1V35H76v8.8h10.4v5.5H69.7V16.9h16.8v5.5H76z"/>
	<path class="st0" d="M107.2,49.3h-6.3V16.9h6.3V49.3z"/>
	<path class="st0" d="M135.8,16.9h7.8l-12.3,15l13,17.5h-8.1L126.8,34l-0.1,0.8v14.6h-6.3V16.9h6.3v11.9h0.1L135.8,16.9z"/>
	<path class="st0" d="M167.7,50.2c-9.9,0-16-7.6-16-17.1c0-9.6,6.4-17,16-17s16,7.4,16,17C183.7,42.6,177.6,50.2,167.7,50.2z
		 M167.7,22.2c-6,0-9.5,5.3-9.5,10.5c0,5,2.5,11.1,9.5,11.1s9.5-6.1,9.5-11.1C177.2,27.5,173.6,22.2,167.7,22.2z"/>
	<path class="st0" d="M28.9,97.2h-6.3V65.9h8.6c5.6,0,10.1,2.2,10.1,8.9c0,6.2-4.6,9.1-9.2,9.1h-3.1V97.2z M28.9,78.7h1.3
		c3.8,0,5.5-0.9,5.5-3.6c0-3.3-2.1-3.9-5.7-3.9h-1.1V78.7z"/>
	<path class="st0" d="M79.5,97.2h-7.1l-7.9-14h-0.1v14h-6.3V65.9h8.6c6.4,0,10.8,1.7,10.8,8.6c0,4.1-2.3,8-6.6,8.7L79.5,97.2z
		 M64.5,78.5h0.8c3.5,0,5.9,0.1,5.9-3.9c0-4-2.5-3.6-5.9-3.6h-0.9V78.5z"/>
	<path class="st0" d="M103.1,97.2h-6.3V65.9h6.3V97.2z"/>
	<path class="st0" d="M123.4,65h6.6l12.6,20.7h0.1V65.9h6.3v31.6h-5.1l-14.1-21.2h-0.1v20.9h-6.3V65z"/>
	<path class="st0" d="M177.8,97.2h-5.8V71.4h-6v-5.5h17.7v5.5h-6V97.2z"/>
	<path class="st0" d="M73.5,146c-9.9,0-16-7.2-16-16.3c0-9.2,6.4-16.3,16-16.3s16,7.1,16,16.3C89.6,138.8,83.4,146,73.5,146z
		 M73.5,119.4c-6,0-10.1,5.1-10.1,10.1c0,4.8,3.1,10.6,10.1,10.6c7,0,9.5-5.9,9.5-10.6C83,124.4,79.5,119.4,73.5,119.4z"/>
	<path class="st0" d="M100.3,142.6c0,1.8-1.5,3.2-3.4,3.2s-3.4-1.5-3.4-3.2s1.5-3.2,3.4-3.2S100.3,140.9,100.3,142.6z"/>
	<path class="st0" d="M112.6,141.3l-5.2,9.5l-2.9-1.6l4.1-9.8L112.6,141.3z"/>
	<path class="st0" d="M125.6,140h8.7v5.3h-14.1v-31h5.5V140z"/>
	<path class="st0" d="M147.9,145.2h-5.5v-25.4h-6v-5.5h17.4v5.5h-6V145.2z"/>
	<path class="st0" d="M157.9,114.3h9.6c9.4,0,15.7,6.7,15.7,15.5c0,8.7-6.5,15.4-15.7,15.4h-9.6V114.3z M164,140h1.9
		c7.8,0,10.8-4.1,10.8-10.2c0-6.7-3.6-10.2-10.8-10.2H164V140z"/>
</g>
<g>
	<path class="st0" d="M39.1,140.1c-7,0-9.5-5.9-9.5-10.6c0-5,3.5-10.1,9.5-10.1c3.7,0,6.8,1.7,8.4,4.4l4.7-4
		c-2.8-3.9-7.3-6.4-13-6.4c-9.7,0-16,7.1-16,16.3c0,9.1,6.1,16.3,16,16.3c6,0,10.6-2.7,13.3-6.8l-4.7-3.7
		C46.3,138.4,43.4,140.1,39.1,140.1z"/>
</g>
<g>
	<path class="st0" d="M24.8,161.2v2.5H28v1.9h-3.2v5h-2.2v-11.3h5.6v1.9H24.8z"/>
	<path class="st0" d="M37.9,170.9c-3.4,0-5.6-2.6-5.6-6c0-3.4,2.2-5.9,5.6-5.9s5.6,2.6,5.6,5.9C43.5,168.2,41.4,170.9,37.9,170.9z
		 M37.9,161.1c-2.1,0-3.3,1.8-3.3,3.7c0,1.7,0.9,3.9,3.3,3.9s3.3-2.1,3.3-3.9C41.3,163,40,161.1,37.9,161.1z"/>
	<path class="st0" d="M56.2,170.6h-2.7l-2.7-4.6h0v4.6h-2.2v-11.3h3c2.2,0,3.8,1,3.8,3.4c0,1.4-0.8,2.9-2.3,3.1L56.2,170.6z
		 M50.7,164.4H51c1.2,0,2.1-0.4,2.1-1.7c0-1.4-0.9-1.7-2.1-1.7h-0.3V164.4z"/>
	<path class="st0" d="M68.5,168.6h3.1v1.9h-5.3v-11.3h2.2V168.6z"/>
	<path class="st0" d="M78.5,161.2v2.5H82v1.9h-3.5v3.1h3.6v1.9h-5.8v-11.3h5.8v1.9H78.5z"/>
	<path class="st0" d="M90.8,170.6h-2.2v-9.4h-2.3v-1.9h6.8v1.9h-2.3V170.6z"/>
	<path class="st0" d="M100.6,170.6h-2.2v-9.4h-2.3v-1.9h6.8v1.9h-2.3V170.6z"/>
	<path class="st0" d="M109.5,161.2v2.5h3.5v1.9h-3.5v3.1h3.6v1.9h-5.8v-11.3h5.8v1.9H109.5z"/>
	<path class="st0" d="M126.5,170.6h-2.7l-2.7-4.6h0v4.6h-2.2v-11.3h3c2.2,0,3.8,1,3.8,3.4c0,1.4-0.8,2.9-2.3,3.1L126.5,170.6z
		 M121,164.4h0.3c1.2,0,2.1-0.4,2.1-1.7c0-1.4-0.9-1.7-2.1-1.7H121V164.4z"/>
	<path class="st0" d="M133,170.6h-2.2v-11.3h3c2.4,0,3.9,0.9,3.9,3.5c0,2.4-1.3,3.6-3.6,3.6H133V170.6z M133,164.5h0.5
		c1.3,0,2-0.3,2-1.8c0-1.5-0.8-1.7-2.1-1.7H133V164.5z"/>
	<path class="st0" d="M150.3,170.6h-2.7l-2.7-4.6h0v4.6h-2.2v-11.3h3c2.2,0,3.8,1,3.8,3.4c0,1.4-0.8,2.9-2.3,3.1L150.3,170.6z
		 M144.8,164.4h0.3c1.2,0,2.1-0.4,2.1-1.7c0-1.4-0.9-1.7-2.1-1.7h-0.3V164.4z"/>
	<path class="st0" d="M157.1,161.2v2.5h3.5v1.9h-3.5v3.1h3.6v1.9h-5.9v-11.3h5.9v1.9H157.1z"/>
	<path class="st0" d="M170.8,161.7c-0.4-0.6-1-0.9-1.7-0.9c-0.7,0-1.4,0.5-1.4,1.3c0,1.9,4.5,1.1,4.5,4.9c0,2.3-1.4,3.9-3.7,3.9
		c-1.6,0-2.7-0.9-3.5-2.2l1.4-1.4c0.3,0.9,1.1,1.6,2,1.6c0.9,0,1.5-0.8,1.5-1.6c0-1.2-1.1-1.5-2-1.8c-1.5-0.6-2.5-1.3-2.5-3.1
		c0-1.9,1.4-3.4,3.3-3.4c1,0,2.4,0.5,3.1,1.3L170.8,161.7z"/>
	<path class="st0" d="M182,161.7c-0.4-0.6-1-0.9-1.7-0.9c-0.7,0-1.4,0.5-1.4,1.3c0,1.9,4.5,1.1,4.5,4.9c0,2.3-1.4,3.9-3.7,3.9
		c-1.6,0-2.7-0.9-3.5-2.2l1.4-1.4c0.3,0.9,1.1,1.6,2,1.6c0.9,0,1.5-0.8,1.5-1.6c0-1.2-1.1-1.5-2-1.8c-1.5-0.6-2.5-1.3-2.5-3.1
		c0-1.9,1.4-3.4,3.3-3.4c1,0,2.4,0.5,3.1,1.3L182,161.7z"/>
</g>
</svg>
